<svg xmlns="http://www.w3.org/2000/svg" version="1.1" xmlns:xlink="http://www.w3.org/1999/xlink" xmlns:svgjs="http://svgjs.dev/svgjs" width="1500" height="935" viewBox="0 0 1500 935"><g transform="matrix(1,0,0,1,-0.9090909090909918,0.3785425101214628)"><svg viewBox="0 0 396 247" data-background-color="#ffffff" preserveAspectRatio="xMidYMid meet" height="935" width="1500" xmlns="http://www.w3.org/2000/svg" xmlns:xlink="http://www.w3.org/1999/xlink"><g id="tight-bounds" transform="matrix(1,0,0,1,0.2400000000000091,-0.09999999999999432)"><svg viewBox="0 0 395.52 247.2" height="247.2" width="395.52"><g><svg></svg></g><g><svg viewBox="0 0 395.52 247.2" height="247.2" width="395.52"><g transform="matrix(1,0,0,1,75.54432,71.12795573349268)"><svg viewBox="0 0 244.43135999999998 104.94408853301464" height="104.94408853301464" width="244.43135999999998"><g><svg viewBox="0 0 244.43135999999998 104.94408853301464" height="104.94408853301464" width="244.43135999999998"><g><svg viewBox="0 0 244.43135999999998 104.94408853301464" height="104.94408853301464" width="244.43135999999998"><g><svg viewBox="0 0 244.43135999999998 104.94408853301464" height="104.94408853301464" width="244.43135999999998"><g id="textblocktransform"><svg viewBox="0 0 244.43135999999998 104.94408853301464" height="104.94408853301464" width="244.43135999999998" id="textblock"><g><svg viewBox="0 0 244.43135999999998 104.94408853301464" height="104.94408853301464" width="244.43135999999998"><g transform="matrix(1,0,0,1,0,0)"><svg width="244.43135999999998" viewBox="4.69 -34.47 81.71000000000001 35.08" height="104.94408853301464" data-palette-color="#111111"><path d="M8.69 0L4.69 0 4.69-33.84 8.69-33.84 8.69-19.58 24.78-19.58 24.78-33.84 28.81-33.84 28.81 0 24.78 0 24.78-16.06 8.69-16.06 8.69 0ZM49.24 0L45.24 0 45.24-30.44 34.93-30.44 34.93-33.84 59.57-33.84 59.57-30.44 49.24-30.44 49.24 0ZM74.97 0.61L74.97 0.61Q71.33 0.61 68.35-0.74 65.38-2.1 63.2-4.42L63.2-4.42 65.47-7.1Q67.28-5.13 69.79-4.03 72.31-2.93 75.02-2.93L75.02-2.93Q78.46-2.93 80.39-4.49 82.32-6.05 82.32-8.59L82.32-8.59Q82.32-10.4 81.56-11.49 80.81-12.57 79.51-13.29 78.22-14.01 76.61-14.72L76.61-14.72 71.72-16.89Q70.16-17.58 68.57-18.65 66.99-19.73 65.93-21.41 64.86-23.1 64.86-25.56L64.86-25.56Q64.86-28.15 66.23-30.15 67.6-32.15 69.98-33.31 72.36-34.47 75.36-34.47L75.36-34.47Q78.46-34.47 81-33.3 83.54-32.13 85.27-30.4L85.27-30.4 83.05-27.71Q81.51-29.17 79.56-30.04 77.61-30.91 75.36-30.91L75.36-30.91Q72.48-30.91 70.71-29.52 68.94-28.13 68.94-25.81L68.94-25.81Q68.94-24.15 69.79-23.07 70.65-22 71.94-21.3 73.24-20.61 74.56-20.04L74.56-20.04 79.39-17.97Q81.37-17.14 82.95-15.99 84.54-14.84 85.47-13.15 86.4-11.45 86.4-8.91L86.4-8.91Q86.4-6.25 85-4.09 83.61-1.93 81.06-0.66 78.51 0.61 74.97 0.61Z" opacity="1" transform="matrix(1,0,0,1,0,0)" fill="#111111" class="wordmark-text-0" data-fill-palette-color="primary" id="text-0"></path></svg></g></svg></g></svg></g></svg></g></svg></g></svg></g></svg></g><path d="M229.574 65.128L229.574 14.512 11.397 14.512 11.397 232.688 229.574 232.688 229.574 182.072 220.11 182.072 220.11 223.224 20.861 223.224 20.861 23.976 220.11 23.976 220.11 65.128Z" fill="#cccccc" stroke="transparent" data-fill-palette-color="tertiary"></path></svg></g><defs></defs></svg><rect width="395.52" height="247.2" fill="none" stroke="none" visibility="hidden"></rect></g></svg></g></svg>